<?xml version="1.0" encoding="UTF-8" standalone="no"?>
<!-- Generator: Adobe Illustrator 19.0.0, SVG Export Plug-In . SVG Version: 6.00 Build 0)  -->

<svg
   xmlns:dc="http://purl.org/dc/elements/1.1/"
   xmlns:cc="http://creativecommons.org/ns#"
   xmlns:rdf="http://www.w3.org/1999/02/22-rdf-syntax-ns#"
   xmlns:svg="http://www.w3.org/2000/svg"
   xmlns="http://www.w3.org/2000/svg"
   xmlns:sodipodi="http://sodipodi.sourceforge.net/DTD/sodipodi-0.dtd"
   xmlns:inkscape="http://www.inkscape.org/namespaces/inkscape"
   version="1.1"
   id="Capa_1"
   x="0px"
   y="0px"
   viewBox="0 0 170.07874 170.07874"
   xml:space="preserve"
   sodipodi:docname="heart.svg"
   width="45mm"
   height="45mm"
   inkscape:version="0.92.1 r"><metadata
     id="metadata3757"><rdf:RDF><cc:Work
         rdf:about=""><dc:format>image/svg+xml</dc:format><dc:type
           rdf:resource="http://purl.org/dc/dcmitype/StillImage" /><dc:title></dc:title></cc:Work></rdf:RDF></metadata><defs
     id="defs3755" /><sodipodi:namedview
     pagecolor="#ffffff"
     bordercolor="#666666"
     borderopacity="1"
     objecttolerance="10"
     gridtolerance="10"
     guidetolerance="10"
     inkscape:pageopacity="0"
     inkscape:pageshadow="2"
     inkscape:window-width="1440"
     inkscape:window-height="840"
     id="namedview3753"
     showgrid="false"
     units="mm"
     inkscape:zoom="2.0840454"
     inkscape:cx="26.531757"
     inkscape:cy="79.588797"
     inkscape:window-x="0"
     inkscape:window-y="31"
     inkscape:window-maximized="1"
     inkscape:current-layer="g3720" /><g
     id="g3720"
     transform="matrix(3.270952,0,0,3.270952,-5.3755205e-4,4.1458184)"><path
       d="M 50.906825,16.623433 C 50.177239,8.5931709 44.493382,2.7670496 37.38015,2.7670496 c -4.73895,0 -9.078021,2.5501897 -11.51959,6.6374142 C 23.4411,5.2643707 19.279859,2.7660884 14.616848,2.7660884 c -7.1122709,0 -12.7970888,5.8261212 -13.5257144,13.8563826 -0.057675,0.354701 -0.29414178,2.221444 0.4248714,5.265714 1.0362248,4.390979 3.4297311,8.384963 6.9200209,11.547467 L 25.849025,49.2376 43.560972,33.436613 c 3.49029,-3.163465 5.883796,-7.156488 6.920021,-11.548428 0.719013,-3.043309 0.482546,-4.910052 0.425832,-5.264752 z"
       id="path3718"
       inkscape:connector-curvature="0"
       sodipodi:nodetypes="cscsccccccc"
       style="fill:none;stroke:#000000;stroke-width:0.9612475;stroke-opacity:1" /></g><g
     id="g3722"
     transform="translate(0,118.08174)" /><g
     id="g3724"
     transform="translate(0,118.08174)" /><g
     id="g3726"
     transform="translate(0,118.08174)" /><g
     id="g3728"
     transform="translate(0,118.08174)" /><g
     id="g3730"
     transform="translate(0,118.08174)" /><g
     id="g3732"
     transform="translate(0,118.08174)" /><g
     id="g3734"
     transform="translate(0,118.08174)" /><g
     id="g3736"
     transform="translate(0,118.08174)" /><g
     id="g3738"
     transform="translate(0,118.08174)" /><g
     id="g3740"
     transform="translate(0,118.08174)" /><g
     id="g3742"
     transform="translate(0,118.08174)" /><g
     id="g3744"
     transform="translate(0,118.08174)" /><g
     id="g3746"
     transform="translate(0,118.08174)" /><g
     id="g3748"
     transform="translate(0,118.08174)" /><g
     id="g3750"
     transform="translate(0,118.08174)" /></svg>